<svg xmlns="http://www.w3.org/2000/svg" viewBox="0 0 1200 820" width="100%" style="height:auto;font-family: system-ui, -apple-system, 'Segoe UI', Roboto, Helvetica, Arial, sans-serif;">
  <defs>
    <!-- Filtros de sombra suave -->
    <filter id="card-shadow" x="-5%" y="-5%" width="110%" height="115%" filterUnits="userSpaceOnUse">
      <feDropShadow dx="0" dy="4" stdDeviation="6" flood-color="#0f172a" flood-opacity="0.08" />
    </filter>
    <filter id="header-shadow" x="-2%" y="-5%" width="104%" height="120%" filterUnits="userSpaceOnUse">
      <feDropShadow dx="0" dy="6" stdDeviation="10" flood-color="#002b49" flood-opacity="0.2" />
    </filter>

    <!-- Degradados Institucionales INA -->
    <linearGradient id="ina-header-grad" x1="0%" y1="0%" x2="100%" y2="100%">
      <stop offset="0%" stop-color="#002035" />
      <stop offset="50%" stop-color="#002B49" />
      <stop offset="100%" stop-color="#003D66" />
    </linearGradient>

    <linearGradient id="accent-grad" x1="0%" y1="0%" x2="100%" y2="0%">
      <stop offset="0%" stop-color="#059669" />
      <stop offset="50%" stop-color="#10b981" />
      <stop offset="100%" stop-color="#34d399" />
    </linearGradient>

    <linearGradient id="lunch-grad" x1="0%" y1="0%" x2="100%" y2="0%">
      <stop offset="0%" stop-color="#f1f5f9" />
      <stop offset="50%" stop-color="#e2e8f0" />
      <stop offset="100%" stop-color="#f1f5f9" />
    </linearGradient>
  </defs>

  <!-- Fondo General del Lienzo -->
  <rect width="1200" height="820" rx="16" fill="#f8fafc" stroke="#e2e8f0" stroke-width="2" />

  <!-- ================= CABECERA DEL CRONOGRAMA ================= -->
  <g transform="translate(25, 20)" filter="url(#header-shadow)">
    <rect width="1150" height="95" rx="12" fill="url(#ina-header-grad)" />
    <rect x="0" y="90" width="1150" height="5" rx="2" fill="url(#accent-grad)" />

    <!-- Badges superiores -->
    <rect x="25" y="16" width="160" height="20" rx="10" fill="rgba(255,255,255,0.15)" />
    <text x="105" y="30" fill="#34d399" font-size="10.5" font-weight="800" text-anchor="middle" letter-spacing="0.05em">INA COSTA RICA · 2026</text>

    <rect x="195" y="16" width="210" height="20" rx="10" fill="rgba(255,255,255,0.15)" />
    <text x="300" y="30" fill="#fde68a" font-size="10.5" font-weight="800" text-anchor="middle">JORNADA TÉCNICA · 6 OCTUBRE</text>

    <!-- Título Principal -->
    <text x="25" y="64" fill="#ffffff" font-size="21" font-weight="800" letter-spacing="-0.02em">
      Propuesta de Cronograma &amp; Ruta Pedagógica del Taller
    </text>
    <text x="25" y="82" fill="#cbd5e1" font-size="12.5" font-weight="500">
      Team Up 2 Level Up: Inteligencia Artificial en la Enseñanza del Inglés Técnico · 8:00 a. m. a 3:00 p. m. (7 horas)
    </text>

    <!-- Leyenda / Convenciones -->
    <g transform="translate(740, 22)">
      <rect width="385" height="55" rx="8" fill="rgba(0,0,0,0.25)" stroke="rgba(255,255,255,0.1)" />
      <text x="15" y="18" fill="#94a3b8" font-size="9.5" font-weight="700" letter-spacing="0.05em">CONVENCIONES DEL TALLER:</text>
      
      <!-- Círculo AGM -->
      <circle cx="22" cy="36" r="6" fill="#2563eb" />
      <text x="34" y="40" fill="#ffffff" font-size="11" font-weight="600">Agustín Gómez (AGM)</text>

      <!-- Asesoría académica -->
      <circle cx="170" cy="36" r="6" fill="#7c3aed" />
      <text x="182" y="40" fill="#ffffff" font-size="11" font-weight="600">Hannia León (asesoría)</text>

      <!-- Badge Práctica -->
      <rect x="295" y="29" width="75" height="16" rx="8" fill="#059669" />
      <text x="332" y="41" fill="#ffffff" font-size="9.5" font-weight="800" text-anchor="middle">PR-01 a 07</text>
    </g>
  </g>

  <!-- ================= SECCIÓN MAÑANA (08:00 - 12:00) ================= -->
  <!-- Kicker de la Mañana -->
  <g transform="translate(25, 130)">
    <rect width="1150" height="28" rx="6" fill="#e0f2fe" stroke="#bae6fd" />
    <circle cx="18" cy="14" r="5" fill="#0284c7" />
    <text x="32" y="19" fill="#0369a1" font-size="12" font-weight="800" letter-spacing="0.03em">
      🌅 JORNADA DE LA MAÑANA · ENCUADRE, PANORAMA, MODO DE VOZ Y USOS NO CONVENCIONALES (08:00 – 12:00)
    </text>
  </g>

  <!-- Línea conectora horizontal de la mañana -->
  <line x1="130" y1="255" x2="1060" y2="255" stroke="#cbd5e1" stroke-width="3" stroke-dasharray="6,6" />

  <!-- MOMENTO 1: Apertura & Encuadre (08:00 - 08:30) -->
  <g transform="translate(25, 170)" filter="url(#card-shadow)">
    <rect width="215" height="175" rx="10" fill="#ffffff" stroke="#93c5fd" stroke-width="1.5" />
    <!-- Header Card -->
    <path d="M0,10 Q0,0 10,0 L205,0 Q215,0 215,10 L215,36 L0,36 Z" fill="#eff6ff" />
    <rect x="10" y="8" width="95" height="20" rx="10" fill="#1e40af" />
    <text x="57" y="22" fill="#ffffff" font-size="10" font-weight="800" text-anchor="middle">08:00 – 08:30</text>
    <text x="205" y="22" fill="#64748b" font-size="10" font-weight="700" text-anchor="end">30 min</text>

    <!-- Título y Facilitador -->
    <text x="12" y="55" fill="#0f172a" font-size="13" font-weight="800">1. Apertura &amp; Encuadre</text>
    <rect x="12" y="63" width="80" height="16" rx="8" fill="#dbeafe" />
    <text x="52" y="75" fill="#1e40af" font-size="9" font-weight="800" text-anchor="middle">AGM</text>

    <!-- Detalles -->
    <text x="12" y="96" fill="#334155" font-size="10.5" font-weight="500">• Bienvenida institucional INA.</text>
    <text x="12" y="112" fill="#334155" font-size="10.5" font-weight="500">• Sondeo de nivel de uso real.</text>
    <text x="12" y="128" fill="#334155" font-size="10.5" font-weight="500">• Contrato de confidencialidad.</text>
    <text x="12" y="144" fill="#b45309" font-size="10.5" font-weight="700">• Regla de oro Ley 8968.</text>

    <!-- Badge inferior -->
    <rect x="12" y="152" width="191" height="16" rx="4" fill="#f8fafc" stroke="#e2e8f0" />
    <text x="107" y="164" fill="#475569" font-size="9" font-weight="700" text-anchor="middle">Sondeo inicial &amp; Metodología</text>
  </g>

  <!-- MOMENTO 2: Receso Técnico (08:30 - 09:00) -->
  <g transform="translate(255, 170)" filter="url(#card-shadow)">
    <rect width="215" height="175" rx="10" fill="#ffffff" stroke="#cbd5e1" stroke-width="1.5" />
    <path d="M0,10 Q0,0 10,0 L205,0 Q215,0 215,10 L215,36 L0,36 Z" fill="#f1f5f9" />
    <rect x="10" y="8" width="95" height="20" rx="10" fill="#475569" />
    <text x="57" y="22" fill="#ffffff" font-size="10" font-weight="800" text-anchor="middle">08:30 – 09:00</text>
    <text x="205" y="22" fill="#64748b" font-size="10" font-weight="700" text-anchor="end">30 min</text>

    <text x="12" y="55" fill="#0f172a" font-size="13" font-weight="800">2. Receso &amp; Soporte</text>
    <rect x="12" y="63" width="95" height="16" rx="8" fill="#f1f5f9" />
    <text x="59" y="75" fill="#475569" font-size="9" font-weight="800" text-anchor="middle">Mesa de Apoyo</text>

    <text x="12" y="96" fill="#334155" font-size="10.5" font-weight="500">• Café y pausa matutina.</text>
    <text x="12" y="112" fill="#334155" font-size="10.5" font-weight="500">• Validación de conectividad.</text>
    <text x="12" y="128" fill="#334155" font-size="10.5" font-weight="500">• Apertura de cuentas IA.</text>
    <text x="12" y="144" fill="#15803d" font-size="10.5" font-weight="600">• Verificación Plan B listo.</text>

    <rect x="12" y="152" width="191" height="16" rx="4" fill="#f8fafc" stroke="#e2e8f0" />
    <text x="107" y="164" fill="#475569" font-size="9" font-weight="700" text-anchor="middle">Prueba técnica de cuentas</text>
  </g>

  <!-- MOMENTO 3: Bloque 1 - Panorama, Evidencia & Voz (09:00 - 10:00) -->
  <g transform="translate(485, 170)" filter="url(#card-shadow)">
    <rect width="225" height="175" rx="10" fill="#ffffff" stroke="#2563eb" stroke-width="2" />
    <path d="M0,10 Q0,0 10,0 L215,0 Q225,0 225,10 L225,36 L0,36 Z" fill="#eff6ff" />
    <rect x="10" y="8" width="95" height="20" rx="10" fill="#2563eb" />
    <text x="57" y="22" fill="#ffffff" font-size="10" font-weight="800" text-anchor="middle">09:00 – 10:00</text>
    <text x="215" y="22" fill="#1e40af" font-size="10" font-weight="800" text-anchor="end">60 min</text>

    <text x="12" y="55" fill="#0f172a" font-size="13" font-weight="800">3. Bloque 1: Panorama &amp; Voz</text>
    <rect x="12" y="63" width="135" height="16" rx="8" fill="#dbeafe" />
    <text x="79" y="75" fill="#1e40af" font-size="9" font-weight="800" text-anchor="middle">Agustín Gómez (AGM)</text>

    <text x="12" y="96" fill="#334155" font-size="10.5" font-weight="500">• 3 fallas críticas de la IA en EFL.</text>
    <text x="12" y="112" fill="#334155" font-size="10.5" font-weight="500">• Los 5 componentes obligatorios.</text>
    <text x="12" y="128" fill="#334155" font-size="10.5" font-weight="500">• Demostración de Voz en vivo.</text>

    <!-- Badge Práctica PR-01 -->
    <rect x="12" y="146" width="201" height="22" rx="6" fill="#059669" />
    <text x="112" y="161" fill="#ffffff" font-size="10.5" font-weight="800" text-anchor="middle">🎯 PR-01: Quejas Hotel A2 (12m)</text>
  </g>

  <!-- MOMENTO 4: Bloque 2 - Usos No Convencionales (10:00 - 11:30) -->
  <g transform="translate(725, 170)" filter="url(#card-shadow)">
    <rect width="240" height="175" rx="10" fill="#ffffff" stroke="#7c3aed" stroke-width="2" />
    <path d="M0,10 Q0,0 10,0 L230,0 Q240,0 240,10 L240,36 L0,36 Z" fill="#f5f3ff" />
    <rect x="10" y="8" width="100" height="20" rx="10" fill="#7c3aed" />
    <text x="60" y="22" fill="#ffffff" font-size="10" font-weight="800" text-anchor="middle">10:00 – 11:30</text>
    <text x="230" y="22" fill="#6d28d9" font-size="10" font-weight="800" text-anchor="end">90 min</text>

    <text x="12" y="55" fill="#0f172a" font-size="13" font-weight="800">4. Bloque 2: No Convencionales</text>
    <rect x="12" y="63" width="145" height="16" rx="8" fill="#ede9fe" />
    <text x="84" y="75" fill="#6d28d9" font-size="9" font-weight="800" text-anchor="middle">Agustín Gómez (AGM)</text>

    <text x="12" y="96" fill="#334155" font-size="10.5" font-weight="500">• Retroalimentación A2 vs B1.</text>
    <text x="12" y="112" fill="#334155" font-size="10.5" font-weight="500">• Anticipación de errores de aula.</text>
    <text x="12" y="128" fill="#334155" font-size="10.5" font-weight="500">• Chatbot tutor con límite estricto.</text>

    <!-- Badge Prácticas PR-02, 03, 04 -->
    <rect x="12" y="146" width="216" height="22" rx="6" fill="#059669" />
    <text x="120" y="161" fill="#ffffff" font-size="10" font-weight="800" text-anchor="middle">🎯 PR-02 + PR-03 + PR-04 (12m c/u)</text>
  </g>

  <!-- MOMENTO 5: Q&A y Síntesis Matutina (11:30 - 12:00) -->
  <g transform="translate(980, 170)" filter="url(#card-shadow)">
    <rect width="195" height="175" rx="10" fill="#ffffff" stroke="#93c5fd" stroke-width="1.5" />
    <path d="M0,10 Q0,0 10,0 L185,0 Q195,0 195,10 L195,36 L0,36 Z" fill="#eff6ff" />
    <rect x="10" y="8" width="95" height="20" rx="10" fill="#0284c7" />
    <text x="57" y="22" fill="#ffffff" font-size="10" font-weight="800" text-anchor="middle">11:30 – 12:00</text>
    <text x="185" y="22" fill="#0369a1" font-size="10" font-weight="700" text-anchor="end">30 min</text>

    <text x="12" y="55" fill="#0f172a" font-size="13" font-weight="800">5. Plenaria &amp; Q&amp;A</text>
    <rect x="12" y="63" width="80" height="16" rx="8" fill="#e0f2fe" />
    <text x="52" y="75" fill="#0369a1" font-size="9" font-weight="800" text-anchor="middle">AGM</text>

    <text x="12" y="96" fill="#334155" font-size="10.5" font-weight="500">• Preguntas docentes en vivo.</text>
    <text x="12" y="112" fill="#334155" font-size="10.5" font-weight="500">• Calibración en pantalla.</text>
    <text x="12" y="128" fill="#334155" font-size="10.5" font-weight="500">• Revisión de microentregas.</text>
    <text x="12" y="144" fill="#15803d" font-size="10.5" font-weight="600">• Balance de la mañana.</text>

    <rect x="12" y="152" width="171" height="16" rx="4" fill="#f8fafc" stroke="#e2e8f0" />
    <text x="97" y="164" fill="#475569" font-size="9" font-weight="700" text-anchor="middle">Síntesis y retroalimentación</text>
  </g>

  <!-- ================= PAUSA MERIDIANA: ALMUERZO ================= -->
  <g transform="translate(25, 365)">
    <rect width="1150" height="36" rx="8" fill="url(#lunch-grad)" stroke="#cbd5e1" stroke-width="1.5" />
    <text x="575" y="23" fill="#334155" font-size="13" font-weight="800" text-anchor="middle" letter-spacing="0.04em">
      🍽️ 12:00 – 13:00 · RECESO MERIDIANO: ALMUERZO Y PAUSA DE RECUPERACIÓN (60 MINUTOS)
    </text>
  </g>

  <!-- ================= SECCIÓN TARDE (13:00 - 15:00) ================= -->
  <!-- Kicker de la Tarde -->
  <g transform="translate(25, 415)">
    <rect width="1150" height="28" rx="6" fill="#fef3c7" stroke="#fde68a" />
    <circle cx="18" cy="14" r="5" fill="#d97706" />
    <text x="32" y="19" fill="#92400e" font-size="12" font-weight="800" letter-spacing="0.03em">
      🌇 JORNADA DE LA TARDE · EVALUACIÓN, PRUEBA DE ESFUERZO, MODO VOZ, IA LOCAL Y COMPROMISO (13:00 – 15:00)
    </text>
  </g>

  <!-- Línea conectora horizontal de la tarde -->
  <line x1="160" y1="550" x2="1030" y2="550" stroke="#cbd5e1" stroke-width="3" stroke-dasharray="6,6" />

  <!-- MOMENTO 6: Bloque 3 - Secuencias, Rúbricas & Voz (13:00 - 14:00) -->
  <g transform="translate(25, 455)" filter="url(#card-shadow)">
    <rect width="360" height="185" rx="10" fill="#ffffff" stroke="#2563eb" stroke-width="2" />
    <path d="M0,10 Q0,0 10,0 L350,0 Q360,0 360,10 L360,36 L0,36 Z" fill="#eff6ff" />
    <rect x="12" y="8" width="95" height="20" rx="10" fill="#2563eb" />
    <text x="59" y="22" fill="#ffffff" font-size="10" font-weight="800" text-anchor="middle">13:00 – 14:00</text>
    <text x="348" y="22" fill="#1e40af" font-size="10" font-weight="800" text-anchor="end">60 min</text>

    <text x="14" y="55" fill="#0f172a" font-size="14" font-weight="800">6. Bloque 3: Modalidad Educativa, Rúbricas &amp; Voz</text>
    <rect x="14" y="63" width="145" height="16" rx="8" fill="#dbeafe" />
    <text x="86" y="75" fill="#1e40af" font-size="9" font-weight="800" text-anchor="middle">Agustín Gómez Meléndez</text>

    <text x="14" y="96" fill="#334155" font-size="11" font-weight="500">• ChatGPT y Claude en modalidad educativa (sin resolver por el alumno).</text>
    <text x="14" y="114" fill="#334155" font-size="11" font-weight="500">• Prueba de esfuerzo sobre rúbrica de 4 criterios (0-16 pts).</text>
    <text x="14" y="132" fill="#334155" font-size="11" font-weight="500">• Interacción oral por Voz: regla 70/30 de habla para el aprendiz.</text>

    <!-- Badges PR-05 y PR-06 -->
    <g transform="translate(14, 146)">
      <rect width="160" height="24" rx="6" fill="#059669" />
      <text x="80" y="16" fill="#ffffff" font-size="10.5" font-weight="800" text-anchor="middle">🎯 PR-05: Rúbrica (12m)</text>
      
      <rect x="170" y="0" width="162" height="24" rx="6" fill="#059669" />
      <text x="251" y="16" fill="#ffffff" font-size="10.5" font-weight="800" text-anchor="middle">🎙️ PR-06: Modo Voz (12m)</text>
    </g>
  </g>

  <!-- MOMENTO 7: Bloque 4 - Gestión de IA Local (14:00 - 14:30) -->
  <g transform="translate(415, 455)" filter="url(#card-shadow)">
    <rect width="360" height="185" rx="10" fill="#ffffff" stroke="#059669" stroke-width="2" />
    <path d="M0,10 Q0,0 10,0 L350,0 Q360,0 360,10 L360,36 L0,36 Z" fill="#ecfdf5" />
    <rect x="12" y="8" width="95" height="20" rx="10" fill="#059669" />
    <text x="59" y="22" fill="#ffffff" font-size="10" font-weight="800" text-anchor="middle">14:00 – 14:30</text>
    <text x="348" y="22" fill="#065f46" font-size="10" font-weight="800" text-anchor="end">30 min</text>

    <text x="14" y="55" fill="#0f172a" font-size="14" font-weight="800">7. Bloque 4: Gestión &amp; Despliegue de IA Local</text>
    <rect x="14" y="63" width="145" height="16" rx="8" fill="#d1fae5" />
    <text x="86" y="75" fill="#065f46" font-size="9" font-weight="800" text-anchor="middle">Agustín Gómez Meléndez</text>

    <text x="14" y="96" fill="#334155" font-size="11" font-weight="500">• Ejecución autónoma en Modo Avión (Ollama / LM Studio / Msty).</text>
    <text x="14" y="114" fill="#334155" font-size="11" font-weight="500">• Protección de registros de estudiantes bajo Ley 8968.</text>
    <text x="14" y="132" fill="#334155" font-size="11" font-weight="500">• Adaptaciones lingüísticas para LESCO, Portugués y Francés.</text>

    <!-- Badge PR-07 -->
    <rect x="14" y="146" width="332" height="24" rx="6" fill="#059669" />
    <text x="180" y="162" fill="#ffffff" font-size="11" font-weight="800" text-anchor="middle">🔒 PR-07: Ficha Técnica &amp; IA Local (12 min)</text>
  </g>

  <!-- MOMENTO 8: Cierre, Evaluación & Compromiso a 30 Días (14:30 - 15:00) -->
  <g transform="translate(805, 455)" filter="url(#card-shadow)">
    <rect width="370" height="185" rx="10" fill="#ffffff" stroke="#d97706" stroke-width="2" />
    <path d="M0,10 Q0,0 10,0 L360,0 Q370,0 370,10 L370,36 L0,36 Z" fill="#fffbeb" />
    <rect x="12" y="8" width="95" height="20" rx="10" fill="#d97706" />
    <text x="59" y="22" fill="#ffffff" font-size="10" font-weight="800" text-anchor="middle">14:30 – 15:00</text>
    <text x="358" y="22" fill="#92400e" font-size="10" font-weight="800" text-anchor="end">30 min</text>

    <text x="14" y="55" fill="#0f172a" font-size="14" font-weight="800">8. Cierre Oficial &amp; Compromiso a 30 Días</text>
    <rect x="14" y="63" width="155" height="16" rx="8" fill="#fef3c7" />
    <text x="91" y="75" fill="#92400e" font-size="9" font-weight="800" text-anchor="middle">Agustín Gómez (AGM)</text>

    <text x="14" y="96" fill="#334155" font-size="11" font-weight="500">• Guardado en el cuaderno local del taller.</text>
    <text x="14" y="114" fill="#334155" font-size="11" font-weight="500">• Definición del Compromiso Docente a 30 días de aula.</text>
    <text x="14" y="132" fill="#334155" font-size="11" font-weight="500">• Encuesta de satisfacción y entrega de constancias INA.</text>

    <!-- Badge Compromiso -->
    <rect x="14" y="146" width="342" height="24" rx="6" fill="#d97706" />
    <text x="185" y="162" fill="#ffffff" font-size="11" font-weight="800" text-anchor="middle">💾 Cuaderno local &amp; compromiso docente</text>
  </g>

  <!-- ================= BARRA INFERIOR: CICLO METODOLÓGICO DE 25 MIN ================= -->
  <g transform="translate(25, 660)">
    <rect width="1150" height="135" rx="12" fill="#ffffff" stroke="#e2e8f0" stroke-width="1.5" filter="url(#card-shadow)" />
    
    <!-- Título de la Metodología -->
    <rect x="20" y="14" width="280" height="22" rx="11" fill="#ede9fe" />
    <text x="160" y="29" fill="#6d28d9" font-size="11" font-weight="800" text-anchor="middle">🔄 MÉTODO CONDUCTOR: CICLO DE 25 MINUTOS</text>

    <text x="320" y="30" fill="#64748b" font-size="11" font-weight="500">
      Estructura estandarizada repetida en cada una de las 7 prácticas activas del taller:
    </text>

    <!-- Las 4 Fases del Ciclo de 25 min -->
    <!-- Fase 1: Demo (8 min) -->
    <g transform="translate(20, 50)">
      <rect width="260" height="65" rx="8" fill="#f8fafc" stroke="#93c5fd" stroke-width="1.5" />
      <circle cx="24" cy="22" r="12" fill="#dbeafe" />
      <text x="24" y="26" fill="#1e40af" font-size="11" font-weight="800" text-anchor="middle">1</text>
      <text x="46" y="20" fill="#0f172a" font-size="12" font-weight="800">Demo Conducida</text>
      <rect x="46" y="28" width="55" height="15" rx="4" fill="#1e40af" />
      <text x="73" y="39" fill="#ffffff" font-size="9" font-weight="800" text-anchor="middle">8 MIN</text>
      <text x="12" y="54" fill="#475569" font-size="10">El facilitador proyecta el caso y las reglas.</text>
    </g>

    <!-- Flecha 1 -->
    <path d="M290,82 L305,82" stroke="#94a3b8" stroke-width="2" marker-end="url(#arrow)" />

    <!-- Fase 2: Práctica en IA (12 min) -->
    <g transform="translate(315, 50)">
      <rect width="260" height="65" rx="8" fill="#f0fdf4" stroke="#86efac" stroke-width="2" />
      <circle cx="24" cy="22" r="12" fill="#dcfce7" />
      <text x="24" y="26" fill="#166534" font-size="11" font-weight="800" text-anchor="middle">2</text>
      <text x="46" y="20" fill="#14532d" font-size="12" font-weight="800">Práctica Individual</text>
      <rect x="46" y="28" width="65" height="15" rx="4" fill="#15803d" />
      <text x="78" y="39" fill="#ffffff" font-size="9" font-weight="800" text-anchor="middle">12 MIN</text>
      <text x="12" y="54" fill="#166534" font-size="10">Trabajo individual en ChatGPT, Claude o Gemini.</text>
    </g>

    <!-- Flecha 2 -->
    <path d="M585,82 L600,82" stroke="#94a3b8" stroke-width="2" />

    <!-- Fase 3: Microentregable (3 min) -->
    <g transform="translate(610, 50)">
      <rect width="245" height="65" rx="8" fill="#fffbeb" stroke="#fde68a" stroke-width="1.5" />
      <circle cx="24" cy="22" r="12" fill="#fef3c7" />
      <text x="24" y="26" fill="#92400e" font-size="11" font-weight="800" text-anchor="middle">3</text>
      <text x="46" y="20" fill="#78350f" font-size="12" font-weight="800">Microentregable</text>
      <rect x="46" y="28" width="55" height="15" rx="4" fill="#b45309" />
      <text x="73" y="39" fill="#ffffff" font-size="9" font-weight="800" text-anchor="middle">3 MIN</text>
      <text x="12" y="54" fill="#92400e" font-size="10">Guardado en el cuaderno local del taller.</text>
    </g>

    <!-- Flecha 3 -->
    <path d="M865,82 L880,82" stroke="#94a3b8" stroke-width="2" />

    <!-- Fase 4: Devolución Pública (2 min) -->
    <g transform="translate(890, 50)">
      <rect width="240" height="65" rx="8" fill="#fdf4ff" stroke="#f5d0fe" stroke-width="1.5" />
      <circle cx="24" cy="22" r="12" fill="#fae8ff" />
      <text x="24" y="26" fill="#86198f" font-size="11" font-weight="800" text-anchor="middle">4</text>
      <text x="46" y="20" fill="#701a75" font-size="12" font-weight="800">Devolución Pública</text>
      <rect x="46" y="28" width="55" height="15" rx="4" fill="#a21caf" />
      <text x="73" y="39" fill="#ffffff" font-size="9" font-weight="800" text-anchor="middle">2 MIN</text>
      <text x="12" y="54" fill="#86198f" font-size="10">Análisis de aciertos y errores en plenaria.</text>
    </g>
  </g>
</svg>
